<?xml version="1.0" standalone="no"?><!DOCTYPE svg PUBLIC "-//W3C//DTD SVG 1.1//EN" "http://www.w3.org/Graphics/SVG/1.1/DTD/svg11.dtd"><svg t="1573025851703" class="icon" viewBox="0 0 1024 1024" version="1.1" xmlns="http://www.w3.org/2000/svg" p-id="1703" xmlns:xlink="http://www.w3.org/1999/xlink" width="200" height="200"><defs><style type="text/css"></style></defs><path d="M60.831683 998.653465a451.168317 25.346535 0 1 0 902.336634 0 451.168317 25.346535 0 1 0-902.336634 0Z" fill="#EEEEEE" p-id="1704"></path><path d="M512 522.01695l273.742574 466.376238H238.257426z" fill="#FECC41" p-id="1705"></path><path d="M501.070574 515.599208c4.89695-8.344079 16.961901-8.344079 21.858852 0l273.742574 466.376238c4.957782 8.450535-1.135525 19.09101-10.929426 19.091009H238.257426c-9.793901 0-15.887208-10.640475-10.929426-19.091009l273.742574-466.376238z m-240.680554 460.120713h503.21996L512 547.054257l-251.60998 428.660594z" fill="#6B0103" p-id="1706"></path><path d="M409.447921 712.11596h200.445465v-25.346534h-200.440396zM248.720475 992.935287l422.273268-186.499802-10.24-23.192079-422.273268 186.504871z" fill="#6B0103" p-id="1707"></path><path d="M773.216317 992.955564l-426.597386-186.504871 10.153821-23.222495 426.597387 186.499802zM524.673267 522.138614V420.752475a12.673267 12.673267 0 1 0-25.346534 0v101.386139a12.673267 12.673267 0 1 0 25.346534 0z" fill="#6B0103" p-id="1708"></path><path d="M382.89996 565.440634A158.882218 158.882218 0 0 1 352.316832 471.445545c0-88.190733 71.492436-159.683168 159.683168-159.683169s159.683168 71.492436 159.683168 159.683169a158.882218 158.882218 0 0 1-30.583128 93.995089 12.673267 12.673267 0 0 0 20.48 14.939247A184.223683 184.223683 0 0 0 697.029703 471.445545c0-102.187089-82.842614-185.029703-185.029703-185.029703S326.970297 369.258455 326.970297 471.445545c0 39.692673 12.546535 77.52998 35.449663 108.934336a12.673267 12.673267 0 1 0 20.48-14.939247z" fill="#CCCCCC" p-id="1709"></path><path d="M306.287525 692.031366C245.506535 635.336238 210.376238 556.214495 210.376238 471.445545c0-166.577426 135.046337-301.623762 301.623762-301.623763s301.623762 135.046337 301.623762 301.623763c0 84.76895-35.130297 163.885624-95.911287 220.585821a12.673267 12.673267 0 1 0 17.296475 18.533386C800.869386 649.114614 838.970297 563.316594 838.970297 471.445545c0-180.578851-146.391446-326.970297-326.970297-326.970297S185.029703 290.866693 185.029703 471.445545c0 91.87105 38.100911 177.669069 103.961347 239.119207a12.673267 12.673267 0 1 0 17.291405-18.533386z" fill="#CCCCCC" opacity=".6" p-id="1710"></path><path d="M232.782574 816.117861C129.546139 732.38305 68.435644 606.93798 68.435644 471.445545 68.435644 226.471287 267.025743 27.881188 512 27.881188s443.564356 198.590099 443.564356 443.564357c0 135.492436-61.115564 260.937505-164.34693 344.672316a12.673267 12.673267 0 0 0 15.968317 19.684119C916.292436 747.307089 980.910891 614.653465 980.910891 471.445545 980.910891 212.474931 770.970614 2.534653 512 2.534653S43.089109 212.474931 43.089109 471.445545c0 143.21299 64.623525 275.861545 173.725148 364.356435a12.673267 12.673267 0 0 0 15.968317-19.684119z" fill="#CCCCCC" opacity=".2" p-id="1711"></path></svg>