<?xml version="1.0" standalone="no"?><!DOCTYPE svg PUBLIC "-//W3C//DTD SVG 1.1//EN" "http://www.w3.org/Graphics/SVG/1.1/DTD/svg11.dtd"><svg t="1573025838599" class="icon" viewBox="0 0 1024 1024" version="1.1" xmlns="http://www.w3.org/2000/svg" p-id="1562" xmlns:xlink="http://www.w3.org/1999/xlink" width="200" height="200"><defs><style type="text/css"></style></defs><path d="M95.292832 565.805624c0 231.094495 187.341307 418.430733 418.430732 418.430732 231.094495 0 418.430733-187.336238 418.430733-418.430732S744.818059 147.374891 513.723564 147.374891c-231.089426 0-418.430733 187.336238-418.430732 418.430733z" fill="#ECF3FE" p-id="1563"></path><path d="M513.723564 992.884594c-235.494653 0-427.068832-191.574178-427.068831-427.068832S278.228911 138.746931 513.723564 138.746931s427.068832 191.569109 427.068832 427.068831c0 235.494653-191.569109 427.068832-427.068832 427.068832z m0-836.861465c-225.954218 0-409.787564 183.833347-409.787564 409.787564s183.833347 409.787564 409.787564 409.787564 409.787564-183.833347 409.787565-409.787564-183.833347-409.787564-409.787565-409.787564z" fill="#6C0000" p-id="1564"></path><path d="M513.723564 971.781069c136.399842 0 257.186218-66.615762 331.786139-169.025901l-193.61204-460.460356H375.544396l-193.61204 460.460356c74.60499 102.410139 195.391366 169.025901 331.791208 169.025901z" fill="#FECC41" p-id="1565"></path><path d="M513.723564 980.429307c-133.403881 0-260.055446-64.512-338.781782-172.574416l-2.874297-3.954059 1.90099-4.491406L369.805941 333.651644h287.835247l197.738456 470.249188-2.869228 3.954059c-78.726337 108.057347-205.38297 172.574416-338.781782 172.574416z m-321.911128-178.850218c75.659406 101.259406 195.624554 161.56895 321.911128 161.568951s246.251723-60.304475 321.911129-161.568951l-189.475485-450.641109h-264.871287l-189.475485 450.641109z" fill="#6B0204" p-id="1566"></path><path d="M513.723564 980.429307c-95.505743 0-188.983762-33.05695-263.208554-93.082614l-4.420436-3.573861L397.281584 338.842614h232.894099l151.181941 544.925148-4.420436 3.573862c-74.209584 60.025663-167.687604 93.087683-263.208554 93.087683z m-247.909386-103.008317c70.43802 55.306139 158.243485 85.72198 247.909386 85.72198 89.67604 0 177.486574-30.415842 247.909386-85.72198L617.025901 356.12895H410.421228L265.814178 877.42099z" fill="#6B0204" p-id="1567"></path><path d="M513.723564 980.429307c-60.755644 0-119.498772-12.820277-174.602138-38.141465l-3.518099-1.601901-2.828674-9.246416 0.339644-1.982099L434.769109 338.842614h157.908911l101.994455 592.591841-2.549861 8.288317-3.80198 2.56c-55.098297 25.321188-113.841426 38.146535-174.59707 38.146535z m-162.902178-51.823525c51.524436 22.913267 106.298297 34.537188 162.902178 34.537188 56.603881 0 111.372673-11.623921 162.902179-34.537188l-98.52705-572.476832H449.348436l-98.52705 572.476832z" fill="#6B0204" p-id="1568"></path><path d="M513.723564 984.236356c100.488871 0 192.684356-35.454733 264.820594-94.49695-58.88-82.766574-155.506059-136.810455-264.820594-136.810456-109.309465 0-205.935525 54.038812-264.820594 136.810456 72.136238 59.042218 164.331723 94.491881 264.820594 94.491881z" fill="#FFA500" p-id="1569"></path><path d="M513.723564 991.444911c-97.989703 0-193.657663-34.141782-269.372831-96.139406l-5.221386-4.263287 3.913504-5.49006c62.291644-87.567208 163.485149-139.836832 270.680713-139.836831 107.200634 0 208.389069 52.264554 270.680713 139.836831l3.913505 5.49006-5.221386 4.258218c-75.715168 62.002693-171.378059 96.144475-269.372832 96.144475z m-254.945584-103.018456c72.288317 57.19699 162.552396 88.606416 254.945584 88.606416s182.662337-31.414495 254.945585-88.611485c-59.868515-80.45497-154.659485-128.29402-254.945585-128.29402s-195.077069 47.83905-254.945584 128.299089z" fill="#6C0000" p-id="1570"></path><path d="M726.16301 254.114218C724.596594 138.087921 630.114851 44.508515 513.723564 44.508515c-116.391287 0-210.87303 93.579406-212.439445 209.600634h424.878891z" fill="#7CBEFF" p-id="1571"></path><path d="M734.93798 262.762455H292.509149l0.126732-8.754693C294.273267 133.713109 393.449188 35.865347 513.723564 35.865347c120.294653 0 219.465505 97.852832 221.087684 218.142415l0.126732 8.754693z m-424.706534-17.286336h406.984237c-6.052752-106.835644-95.546297-192.334574-203.492119-192.334574-107.925545 0.005069-197.439366 85.504-203.492118 192.334574z" fill="#6C0000" p-id="1572"></path><path d="M301.208079 253.024317h425.025901v34.927525H301.208079z" fill="#FFBD00" p-id="1573"></path><path d="M734.877149 296.59501H292.56998v-52.213861h442.312238v52.213861z m-425.025901-17.281267h407.744633v-17.641189H309.851248v17.641189z" fill="#6C0000" p-id="1574"></path><path d="M749.527446 287.865663H277.919683a48.031683 48.031683 0 0 0-48.031683 48.031684 48.031683 48.031683 0 0 0 48.031683 48.031683h43.165149c0 0.157149-0.045624 0.299089-0.045624 0.456237v16.373862a18.553663 18.553663 0 0 0 37.117465 0v-16.373862c0-0.152079-0.040554-0.299089-0.045623-0.456237h311.21996c0 0.157149-0.045624 0.304158-0.045624 0.456237v16.373862a18.558733 18.558733 0 0 0 37.117465 0v-16.373862c0-0.152079-0.040554-0.299089-0.045623-0.456237h43.165148a48.031683 48.031683 0 0 0 48.031683-48.031683c0-26.527683-21.493861-48.031683-48.026613-48.031684z" fill="#248BF2" p-id="1575"></path><path d="M687.844119 427.96103a27.20697 27.20697 0 0 1-27.191763-27.191763v-8.192H366.764356l0.040555 8.192a27.222178 27.222178 0 0 1-27.20697 27.191763 27.222178 27.222178 0 0 1-27.206971-27.191763v-8.192h-34.481425c-31.257347 0-56.674851-25.417505-56.674852-56.674851 0-31.257347 25.417505-56.674851 56.674852-56.674852h471.612831c31.257347 0 56.674851 25.417505 56.674852 56.674852 0 31.257347-25.417505 56.674851-56.674852 56.674851h-34.496633l0.015207 8.192a27.20697 27.20697 0 0 1-27.196831 27.191763z m-339.187327-53.004674l9.454258 0.339644h319.873267l-0.045624 25.473267a9.920634 9.920634 0 0 0 19.826059 0v-25.022099l8.597545-0.451168h43.165149c21.716911 0 39.393584-17.676673 39.393584-39.393584s-17.676673-39.393584-39.388515-39.393584H277.909545c-21.716911 0-39.388515 17.676673-39.388515 39.388515 0 21.72198 17.671604 39.398653 39.388515 39.398653h51.808316l-0.045623 25.473267a9.920634 9.920634 0 1 0 19.841267 0v-16.384l-0.861782-9.428911z" fill="#6C0000" p-id="1576"></path><path d="M397.737822 337.078495a19.278574 19.278574 0 1 0 38.552079 0 19.278574 19.278574 0 0 0-38.557149 0z" fill="#FFFFFF" p-id="1577"></path><path d="M417.006257 363.570693a26.512475 26.512475 0 0 1-26.487128-26.487129 26.512475 26.512475 0 0 1 26.487128-26.487128 26.512475 26.512475 0 0 1 26.487129 26.487128 26.512475 26.512475 0 0 1-26.487129 26.487129z m0-38.562218a12.090297 12.090297 0 0 0-12.075089 12.075089 12.090297 12.090297 0 0 0 12.075089 12.075089 12.090297 12.090297 0 0 0 12.07509-12.075089 12.090297 12.090297 0 0 0-12.07509-12.075089z" fill="#6C0000" p-id="1578"></path><path d="M494.44499 337.078495a19.278574 19.278574 0 1 0 38.557149 0 19.278574 19.278574 0 0 0-38.557149 0z" fill="#FFFFFF" p-id="1579"></path><path d="M513.723564 363.570693a26.512475 26.512475 0 0 1-26.487128-26.487129 26.512475 26.512475 0 0 1 26.487128-26.487128 26.512475 26.512475 0 0 1 26.487129 26.487128 26.512475 26.512475 0 0 1-26.487129 26.487129z m0-38.562218a12.090297 12.090297 0 0 0-12.075089 12.075089 12.090297 12.090297 0 0 0 12.075089 12.075089 12.090297 12.090297 0 0 0 12.075089-12.075089 12.090297 12.090297 0 0 0-12.075089-12.075089z" fill="#6C0000" p-id="1580"></path><path d="M591.157228 337.078495a19.278574 19.278574 0 1 0 38.557148 0 19.278574 19.278574 0 0 0-38.557148 0z" fill="#FFFFFF" p-id="1581"></path><path d="M610.445941 363.570693a26.512475 26.512475 0 0 1-26.492198-26.487129 26.512475 26.512475 0 0 1 26.487128-26.487128 26.512475 26.512475 0 0 1 26.487129 26.487128 26.512475 26.512475 0 0 1-26.487129 26.487129z m0-38.562218a12.090297 12.090297 0 0 0-12.080159 12.075089 12.090297 12.090297 0 0 0 12.075089 12.075089 12.090297 12.090297 0 0 0 12.075089-12.075089 12.090297 12.090297 0 0 0-12.075089-12.075089z" fill="#6C0000" p-id="1582"></path></svg>