<?xml version="1.0" standalone="no"?><!DOCTYPE svg PUBLIC "-//W3C//DTD SVG 1.1//EN" "http://www.w3.org/Graphics/SVG/1.1/DTD/svg11.dtd"><svg t="1572596713703" class="icon" viewBox="0 0 1024 1024" version="1.1" xmlns="http://www.w3.org/2000/svg" p-id="2331" xmlns:xlink="http://www.w3.org/1999/xlink" width="200" height="200"><defs><style type="text/css"></style></defs><path d="M733.406609 111.304348C703.332174 111.304348 678.956522 86.372174 678.956522 55.652174S703.332174 0 733.406609 0h84.680348A139.130435 139.130435 0 0 1 957.217391 139.130435V534.26087c0 30.72-24.375652 55.652174-54.450087 55.652173-30.052174 0-54.427826-24.932174-54.427826-55.652173V139.130435c0-14.914783-13.133913-27.826087-30.252521-27.826087h-84.680348zM456.347826 912.695652a55.652174 55.652174 0 1 1 0 111.304348H209.007304C130.893913 1024 66.782609 962.181565 66.782609 884.869565V139.130435C66.782609 61.818435 130.893913 0 209.007304 0h86.572522a55.652174 55.652174 0 1 1 0 111.304348h-86.594783C191.510261 111.304348 178.086957 124.215652 178.086957 139.130435v745.73913c0 14.914783 13.401043 27.826087 30.920347 27.826087H456.347826z"  p-id="2332"></path><path d="M402.654609 0m55.986087 0l111.927652 0q55.986087 0 55.986087 55.986087l0-0.022261q0 55.986087-55.986087 55.986087l-111.927652 0q-55.986087 0-55.986087-55.986087l0 0.022261q0-55.986087 55.986087-55.986087Z"  p-id="2333"></path><path d="M745.73913 1024a211.478261 211.478261 0 1 0 0-422.956522 211.478261 211.478261 0 0 0 0 422.956522z m0-44.521739a166.956522 166.956522 0 1 1 0-333.913044 166.956522 166.956522 0 0 1 0 333.913044z"  p-id="2334"></path><path d="M686.035478 791.596522a22.26087 22.26087 0 1 0-31.476869 31.49913l62.953739 62.953739a22.26087 22.26087 0 0 0 31.476869 0l110.191305-110.191304a22.26087 22.26087 0 0 0-31.47687-31.47687l-94.452869 94.45287-47.215305-47.215304zM490.807652 285.740522v75.108174h-32.723478v-43.631305h-204.443826v43.631305h-32.723478v-75.108174h114.999652a173.345391 173.345391 0 0 0-10.284522-23.685565l37.086609-6.233044c3.940174 10.173217 7.279304 20.146087 9.972869 29.918609h118.116174z m-224.077913 58.902261h177.641739v31.165217h-177.641739v-31.165217z m-47.37113 57.655652H493.30087v31.476869h-83.834435v61.707131c0 9.349565 3.739826 14.024348 11.219478 14.024348h38.333217c2.893913 0 5.186783-2.070261 6.856348-6.233044 1.446957-4.786087 2.493217-17.452522 3.116522-38.021565l30.853565 9.661217c-2.29287 31.98887-6.121739 50.910609-11.53113 56.720696-5.186783 5.810087-12.889043 8.726261-23.062261 8.726261h-54.539131c-22.438957 0-33.658435-12.777739-33.658434-38.333218v-68.251826h-44.566261c-1.446957 30.541913-10.084174 55.05113-25.867131 73.549913-15.582609 17.252174-40.292174 30.430609-74.173217 39.579826l-18.69913-29.295304c33.458087-8.525913 55.874783-18.921739 67.316869-31.165217 11.419826-13.512348 17.764174-31.053913 19.010783-52.669218H219.358609v-31.476869z m529.185391-148.969739c13.289739 10.173217 25.243826 20.992 35.84 32.411826l-14.336 14.647652h37.086609v30.853565h-91.625739c2.493217 36.352 6.233043 64.200348 11.219478 83.522783 0.422957 2.070261 1.558261 6.344348 3.428174 12.777739 12.243478-21.593043 22.550261-46.636522 30.853565-75.108174l29.606956 12.777739c-12.04313 39.468522-27.625739 73.126957-46.747826 100.975304 2.693565 6.010435 5.721043 11.53113 9.037913 16.517566 8.726261 13.512348 15.471304 20.257391 20.257392 20.257391 3.33913 0 6.967652-14.959304 10.907826-44.877913l29.295304 15.894261c-8.102957 44.054261-19.834435 66.070261-35.216695 66.070261-13.512348 0-27.937391-9.238261-43.319653-27.737044a146.031304 146.031304 0 0 1-12.466087-18.69913 211.812174 211.812174 0 0 1-71.056695 51.422608l-18.699131-27.425391a203.241739 203.241739 0 0 0 74.796522-57.032348c-3.940174-10.173217-7.791304-22.038261-11.53113-35.528348-6.656-23.885913-11.219478-55.162435-13.712696-93.807304h-97.235478v43.319652h76.354782c-0.823652 57.967304-3.940174 94.118957-9.349565 108.454957-4.986435 12.889043-15.894261 19.522783-32.723478 19.945739-6.455652 0-14.848-0.512-25.243826-1.558261l-9.97287-29.606956c13.913043 1.046261 24.420174 1.558261 31.47687 1.55826 5.186783-0.422957 8.525913-3.628522 9.972869-9.661217 1.669565-6.233043 2.80487-25.755826 3.428174-58.590609h-43.942956c-1.446957 57.766957-14.246957 104.292174-38.333218 139.620174l-24.620521-22.127304c19.122087-28.271304 29.184-67.739826 30.23026-118.427826v-103.780174h128.400696a1160.058435 1160.058435 0 0 1-0.623304-45.189565h33.03513c0 15.805217 0.311652 30.853565 0.934957 45.189565h43.942956a215.262609 215.262609 0 0 0-29.918608-27.425391l20.569043-19.634087z"  p-id="2335"></path></svg>