<?xml version="1.0" standalone="no"?><!DOCTYPE svg PUBLIC "-//W3C//DTD SVG 1.1//EN" "http://www.w3.org/Graphics/SVG/1.1/DTD/svg11.dtd"><svg t="1572593557432" class="icon" viewBox="0 0 1024 1024" version="1.1" xmlns="http://www.w3.org/2000/svg" p-id="1699" xmlns:xlink="http://www.w3.org/1999/xlink"><defs><style type="text/css"></style></defs><path d="M733.406609 111.304348C703.332174 111.304348 678.956522 86.372174 678.956522 55.652174S703.332174 0 733.406609 0h84.680348A139.130435 139.130435 0 0 1 957.217391 139.130435V445.217391c0 30.72-24.375652 55.652174-54.450087 55.652174-30.052174 0-54.427826-24.932174-54.427826-55.652174V139.130435c0-14.914783-13.133913-27.826087-30.252521-27.826087h-84.680348zM456.347826 912.695652a55.652174 55.652174 0 1 1 0 111.304348H209.007304C130.893913 1024 66.782609 962.181565 66.782609 884.869565V139.130435C66.782609 61.818435 130.893913 0 209.007304 0h86.572522a55.652174 55.652174 0 1 1 0 111.304348h-86.594783C191.510261 111.304348 178.086957 124.215652 178.086957 139.130435v745.73913c0 14.914783 13.401043 27.826087 30.920347 27.826087H456.347826z"  p-id="1700"></path><path d="M404.569043 0m58.234435 0l104.848696 0q58.234435 0 58.234435 58.234435l0 0.022261q0 58.234435-58.234435 58.234434l-104.848696 0q-58.234435 0-58.234435-58.234434l0-0.022261q0-58.234435 58.234435-58.234435Z"  p-id="1701"></path><path d="M289.391304 278.26087m55.652174 0l110.013218 0q55.652174 0 55.652174 55.652173l0 5.186783q0 55.652174-55.652174 55.652174l-110.013218 0q-55.652174 0-55.652174-55.652174l0-5.186783q0-55.652174 55.652174-55.652173Z"  p-id="1702"></path><path d="M289.391304 500.869565m55.652174 0l226.482087 0q55.652174 0 55.652174 55.652174l0 5.186783q0 55.652174-55.652174 55.652174l-226.482087 0q-55.652174 0-55.652174-55.652174l0-5.186783q0-55.652174 55.652174-55.652174Z"  p-id="1703"></path><path d="M921.288348 564.624696l-402.387478 194.56c-8.058435 0-12.087652 7.791304-12.087653 15.560347 0 7.791304 4.029217 15.582609 8.058435 15.582609l96.567652 58.368c8.058435 3.873391 16.094609 3.873391 24.153044-3.895652l213.25913-186.790957 8.058435 3.895653-193.157565 198.477913c-4.006957 3.873391-4.006957 7.791304-4.006957 11.664695v85.615305c0 7.791304 4.006957 15.560348 12.043131 19.456 8.058435 3.895652 16.11687 0 20.146087-3.895652l48.261565-46.703305 96.589913 62.263652c4.006957 3.895652 8.058435 3.895652 12.065391 3.895653h8.058435c8.036174-3.895652 12.065391-7.791304 12.065391-15.582609l80.473044-389.12c0-11.664696 0-19.456-8.036174-23.351652-8.058435-3.895652-16.094609-3.895652-20.123826 0z" p-id="1704"></path></svg>
