<?xml version="1.0" standalone="no"?><!DOCTYPE svg PUBLIC "-//W3C//DTD SVG 1.1//EN" "http://www.w3.org/Graphics/SVG/1.1/DTD/svg11.dtd"><svg t="1572596362949" class="icon" viewBox="0 0 1024 1024" version="1.1" xmlns="http://www.w3.org/2000/svg" p-id="1825" xmlns:xlink="http://www.w3.org/1999/xlink" width="200" height="200"><defs><style type="text/css"></style></defs><path d="M733.406609 111.304348C703.332174 111.304348 678.956522 86.372174 678.956522 55.652174S703.332174 0 733.406609 0h84.680348A139.130435 139.130435 0 0 1 957.217391 139.130435V556.521739c0 30.72-24.375652 55.652174-54.450087 55.652174-30.052174 0-54.427826-24.932174-54.427826-55.652174V139.130435c0-14.914783-13.133913-27.826087-30.252521-27.826087h-84.680348zM456.347826 912.695652a55.652174 55.652174 0 1 1 0 111.304348H209.007304C130.893913 1024 66.782609 962.181565 66.782609 884.869565V139.130435C66.782609 61.818435 130.893913 0 209.007304 0h86.572522a55.652174 55.652174 0 1 1 0 111.304348h-86.594783C191.510261 111.304348 178.086957 124.215652 178.086957 139.130435v745.73913c0 14.914783 13.401043 27.826087 30.920347 27.826087H456.347826z"  p-id="1826"></path><path d="M619.774419 942.004334m39.588142-39.588142l197.893486-197.893486q39.588142-39.588142 79.176283 0l-0.015741-0.015741q39.588142 39.588142 0 79.176284l-197.893486 197.893486q-39.588142 39.588142-79.176283 0l0.015741 0.015741q-39.588142-39.588142 0-79.176284Z"  p-id="1827"></path><path d="M580.170536 744.079366m39.588142 39.588142l118.732944 118.732944q39.588142 39.588142 0 79.176283l0.01574-0.015741q-39.588142 39.588142-79.176283 0l-118.732944-118.732943q-39.588142-39.588142 0-79.176284l-0.01574 0.015741q39.588142-39.588142 79.176283 0Z"  p-id="1828"></path><path d="M402.654609 0m55.986087 0l111.927652 0q55.986087 0 55.986087 55.986087l0-0.022261q0 55.986087-55.986087 55.986087l-111.927652 0q-55.986087 0-55.986087-55.986087l0 0.022261q0-55.986087 55.986087-55.986087Z" p-id="1829"></path><path d="M289.391304 278.26087m55.986087 0l111.927652 0q55.986087 0 55.986087 55.986087l0-0.022261q0 55.986087-55.986087 55.986087l-111.927652 0q-55.986087 0-55.986087-55.986087l0 0.022261q0-55.986087 55.986087-55.986087Z"  p-id="1830"></path><path d="M289.391304 500.869565m55.986087 0l223.899826 0q55.986087 0 55.986087 55.986087l0-0.022261q0 55.986087-55.986087 55.986087l-223.899826 0q-55.986087 0-55.986087-55.986087l0 0.022261q0-55.986087 55.986087-55.986087Z"  p-id="1831"></path></svg>