<?xml version="1.0" standalone="no"?><!DOCTYPE svg PUBLIC "-//W3C//DTD SVG 1.1//EN" "http://www.w3.org/Graphics/SVG/1.1/DTD/svg11.dtd"><svg t="1571993430234" class="icon" viewBox="0 0 1152 1024" version="1.1" xmlns="http://www.w3.org/2000/svg" p-id="1447" xmlns:xlink="http://www.w3.org/1999/xlink" width="225" height="200"><defs><style type="text/css"></style></defs><path d="M138.88 452.608l-6.08 2.688c-3.264 1.28-4.8 3.392-4.8 5.12v280.832c0 14.08 13.248 26.752 31.104 26.752a64 64 0 0 1 0 128C71.872 896 0 827.392 0 741.248V460.352c0-54.144 33.28-102.4 83.584-123.2l193.408-97.92 6.144-2.752c11.584-4.48 18.56-14.272 18.56-24.448V133.76C301.696 59.2 363.776 0 438.848 0H768a64 64 0 0 1 0 128H438.848c-5.696 0-9.152 3.264-9.152 5.76v78.272c0 62.72-38.784 118.72-97.408 142.656L138.88 452.608zM1088 768a64 64 0 0 1 0 128h-287.104a64 64 0 0 1 0-128H1088z"  p-id="1448"></path><path d="M384 512H320a64 64 0 1 0 0 128h64c66.56 0 128-40.96 128-106.688V448a64 64 0 1 0-128 0v64zM384 960a128 128 0 1 0 0-256 128 128 0 0 0 0 256zM768 960a128 128 0 1 0 0-256 128 128 0 0 0 0 256z"  p-id="1449"></path><path d="M448 896h213.888v-128H448zM746.88 320h213.888a64 64 0 1 0 0-128h-213.824a64 64 0 1 0 0 128zM746.88 576H1088a64 64 0 0 0 0-128h-341.12a64 64 0 1 0 0 128z"  p-id="1450"></path></svg>