<?xml version="1.0" standalone="no"?><!DOCTYPE svg PUBLIC "-//W3C//DTD SVG 1.1//EN" "http://www.w3.org/Graphics/SVG/1.1/DTD/svg11.dtd"><svg t="1573615823604" class="icon" viewBox="0 0 1024 1024" version="1.1" xmlns="http://www.w3.org/2000/svg" p-id="1960" xmlns:xlink="http://www.w3.org/1999/xlink" width="128" height="128"><defs><style type="text/css"></style></defs><path d="M733.013333 113.777778a56.888889 56.888889 0 1 1 0-113.777778h88.462223C901.347556 0 966.883556 63.203556 966.883556 142.222222V512a56.888889 56.888889 0 0 1-113.777778 0V142.222222c0-15.246222-13.653333-28.444444-31.630222-28.444444H733.070222zM454.883556 910.222222a56.888889 56.888889 0 0 1 0 113.777778H202.069333C122.197333 1024 56.661333 960.796444 56.661333 881.777778v-739.555556C56.661333 63.203556 122.197333 0 202.069333 0H290.474667a56.888889 56.888889 0 1 1 0 113.777778H202.069333C184.092444 113.777778 170.439111 126.976 170.439111 142.222222v739.555556c0 15.246222 13.653333 28.444444 31.630222 28.444444H454.883556z"  p-id="1961"></path><path d="M898.275556 845.027556a54.328889 54.328889 0 0 0-14.506667-1.137778h-16.611556l-6.826666 32.426666h7.168c12.231111 0 20.366222-0.739556 24.462222-2.275555a19.797333 19.797333 0 0 0 13.141333-18.488889 11.377778 11.377778 0 0 0-1.763555-6.656 9.784889 9.784889 0 0 0-5.063111-3.868444M792.974222 845.994667c-2.048-1.194667-6.428444-1.820444-13.255111-1.820445h-25.429333l-6.314667 30.151111h12.288c12.401778 0 20.650667-0.625778 24.689778-2.161777a19.569778 19.569778 0 0 0 9.500444-6.997334 16.611556 16.611556 0 0 0 3.527111-9.955555 10.012444 10.012444 0 0 0-5.006222-9.216"  p-id="1962"></path><path d="M965.973333 735.687111a17.749333 17.749333 0 0 0-4.380444-8.135111l-71.964445-96.483556A18.204444 18.204444 0 0 0 876.999111 625.777778h-218.225778a17.92 17.92 0 0 0-12.686222 5.290666l-71.907555 96.483556a18.204444 18.204444 0 0 0-4.380445 8.135111c-0.227556 0.796444-0.341333 1.536-0.455111 2.275556-0.170667 0.739556-0.398222 1.422222-0.398222 2.275555v231.936c0 28.615111 23.210667 51.825778 51.768889 51.825778h294.4c28.558222 0 51.825778-23.324444 51.825777-51.768889v-231.936c0-0.796444-0.398222-1.536-0.455111-2.332444a15.701333 15.701333 0 0 0-0.455111-2.275556z m-299.804444-73.898667h200.760889l35.896889 60.472889h-272.611556l35.896889-60.472889z m35.783111 207.416889l-3.925333 18.773334h-58.197334l-7.111111 30.549333h65.422222l-3.982222 18.773333H606.378667l23.495111-112.412444h83.342222l-3.868444 18.773333h-60.302223l-5.290666 25.486222h58.197333v0.056889z m110.535111 8.760889c-5.802667 6.200889-14.392889 10.069333-25.998222 11.548445a44.600889 44.600889 0 0 1 8.362667 10.467555c5.12 8.760889 10.922667 21.219556 17.180444 37.262222h-24.803556a351.232 351.232 0 0 0-11.719111-29.696 35.214222 35.214222 0 0 0-10.126222-14.677333 22.186667 22.186667 0 0 0-11.491555-2.218667h-9.386667l-9.784889 46.592h-23.096889l23.495111-112.355555h49.891556c8.533333 0 15.246222 0.910222 20.081778 2.673778 4.778667 1.706667 8.590222 5.006222 11.491555 9.671111a31.971556 31.971556 0 0 1 4.437333 17.066666c0 9.557333-2.844444 17.464889-8.533333 23.665778z m112.469333-8.305778a38.798222 38.798222 0 0 1-8.021333 12.856889 33.450667 33.450667 0 0 1-10.410667 7.281778 55.239111 55.239111 0 0 1-14.791111 3.811556c-3.640889 0.568889-10.410667 0.739556-20.366222 0.739555h-14.791111l-9.045333 42.894222h-23.096889l23.495111-112.355555h45.681778c8.135111 0 14.506667 0.967111 19.285333 2.844444 4.778667 1.934222 8.476444 5.12 11.264 9.500445 2.730667 4.437333 4.152889 9.671111 4.152889 15.815111 0 5.745778-1.137778 11.264-3.356445 16.611555z"  p-id="1963"></path><path d="M397.994667 0m56.888889 0l113.777777 0q56.888889 0 56.888889 56.888889l0 0q0 56.888889-56.888889 56.888889l-113.777777 0q-56.888889 0-56.888889-56.888889l0 0q0-56.888889 56.888889-56.888889Z"  p-id="1964"></path><path d="M289.166222 284.444444m56.888889 0l113.777778 0q56.888889 0 56.888889 56.888889l0 0q0 56.888889-56.888889 56.888889l-113.777778 0q-56.888889 0-56.888889-56.888889l0 0q0-56.888889 56.888889-56.888889Z"  p-id="1965"></path><path d="M284.216889 512m56.888889 0l227.555555 0q56.888889 0 56.888889 56.888889l0 0q0 56.888889-56.888889 56.888889l-227.555555 0q-56.888889 0-56.888889-56.888889l0 0q0-56.888889 56.888889-56.888889Z"  p-id="1966"></path></svg>