<?xml version="1.0" standalone="no"?><!DOCTYPE svg PUBLIC "-//W3C//DTD SVG 1.1//EN" "http://www.w3.org/Graphics/SVG/1.1/DTD/svg11.dtd"><svg t="1571993446004" class="icon" viewBox="0 0 1024 1024" version="1.1" xmlns="http://www.w3.org/2000/svg" p-id="1686" xmlns:xlink="http://www.w3.org/1999/xlink" width="200" height="200"><defs><style type="text/css"></style></defs><path d="M732.940422 113.727232a56.863616 56.863616 0 1 1 0-113.727232h88.422923C901.199862 0 966.706748 63.175478 966.706748 142.15904V454.908929a56.863616 56.863616 0 0 1-113.727233 0V142.15904c0-15.239449-13.647268-28.431808-31.61617-28.431808H732.997285zM454.934202 909.817859a56.863616 56.863616 0 0 1 0 113.727232H202.232292C122.395775 1023.545091 56.888889 960.369614 56.888889 881.386051v-739.227011C56.888889 63.175478 122.395775 0 202.232292 0H290.598351a56.863616 56.863616 0 1 1 0 113.727232H202.232292C184.263389 113.727232 170.616121 126.919591 170.616121 142.15904v739.227011c0 15.239449 13.647268 28.431808 31.616171 28.431808H454.934202z"  p-id="1687"></path><path d="M398.070586 0m56.863616 0l113.727232 0q56.863616 0 56.863617 56.863616l0 0q0 56.863616-56.863617 56.863616l-113.727232 0q-56.863616 0-56.863616-56.863616l0 0q0-56.863616 56.863616-56.863616Z"  p-id="1688"></path><path d="M289.290488 341.181697m56.863616 0l113.727233 0q56.863616 0 56.863616 56.863616l0 0q0 56.863616-56.863616 56.863616l-113.727233 0q-56.863616 0-56.863616-56.863616l0 0q0-56.863616 56.863616-56.863616Z"  p-id="1689"></path><path d="M284.343354 568.636162m56.863616 0l227.454464 0q56.863616 0 56.863617 56.863616l0 0q0 56.863616-56.863617 56.863616l-227.454464 0q-56.863616 0-56.863616-56.863616l0 0q0-56.863616 56.863616-56.863616Z" p-id="1690"></path><path d="M937.706303 571.706797l-413.512216 205.391382c-8.245224 0-12.396268 8.188361-12.396269 16.433585 0 8.188361 4.151044 16.433585 8.245225 16.433585l99.283873 61.583296c8.245224 4.09418 16.490449 4.09418 24.792537-4.09418l219.20924-197.146158 8.245225 4.094181-198.454021 209.485562c-4.151044 4.09418-4.151044 8.245224-4.151044 12.339404v90.356287c0 8.188361 4.09418 16.433585 12.396269 20.527765 8.245224 4.09418 16.490449 0 20.698356-4.09418l49.585073-49.300756 99.283874 65.734341c4.09418 4.09418 8.245224 4.09418 12.396268 4.09418h8.245225c8.302088-4.09418 12.396268-8.188361 12.396268-16.433585L966.706748 596.385606c0-12.339405 0-20.527765-8.245225-24.678809-8.302088-4.09418-16.547312-4.09418-20.698356 0z"  p-id="1691"></path></svg>