<?xml version="1.0" standalone="no"?><!DOCTYPE svg PUBLIC "-//W3C//DTD SVG 1.1//EN" "http://www.w3.org/Graphics/SVG/1.1/DTD/svg11.dtd"><svg t="1571993472855" class="icon" viewBox="0 0 1024 1024" version="1.1" xmlns="http://www.w3.org/2000/svg" p-id="1927" xmlns:xlink="http://www.w3.org/1999/xlink" width="200" height="200"><defs><style type="text/css"></style></defs><path d="M56.888889 113.777778m56.888889 0l796.444444 0q56.888889 0 56.888889 56.888889l0 0q0 56.888889-56.888889 56.888889l-796.444444 0q-56.888889 0-56.888889-56.888889l0 0q0-56.888889 56.888889-56.888889Z" fill="#333333" p-id="1928"></path><path d="M455.111111 341.333333m56.888889 0l398.222222 0q56.888889 0 56.888889 56.888889l0 0q0 56.888889-56.888889 56.888889l-398.222222 0q-56.888889 0-56.888889-56.888889l0 0q0-56.888889 56.888889-56.888889Z" fill="#333333" p-id="1929"></path><path d="M126.008889 487.594667l200.704-120.433778a28.444444 28.444444 0 0 1 43.064889 24.462222v240.810667a28.444444 28.444444 0 0 1-43.064889 24.405333L126.008889 536.405333a28.444444 28.444444 0 0 1 0-48.810666z" fill="#333333" p-id="1930"></path><path d="M455.111111 568.888889m56.888889 0l398.222222 0q56.888889 0 56.888889 56.888889l0 0q0 56.888889-56.888889 56.888889l-398.222222 0q-56.888889 0-56.888889-56.888889l0 0q0-56.888889 56.888889-56.888889Z" fill="#333333" p-id="1931"></path><path d="M56.888889 796.444444m56.888889 0l796.444444 0q56.888889 0 56.888889 56.888889l0 0q0 56.888889-56.888889 56.888889l-796.444444 0q-56.888889 0-56.888889-56.888889l0 0q0-56.888889 56.888889-56.888889Z" fill="#333333" p-id="1932"></path></svg>