<?xml version="1.0" standalone="no"?><!DOCTYPE svg PUBLIC "-//W3C//DTD SVG 1.1//EN" "http://www.w3.org/Graphics/SVG/1.1/DTD/svg11.dtd"><svg t="1573615810483" class="icon" viewBox="0 0 1024 1024" version="1.1" xmlns="http://www.w3.org/2000/svg" p-id="1829" xmlns:xlink="http://www.w3.org/1999/xlink" width="128" height="128"><defs><style type="text/css"></style></defs><path d="M733.240889 113.777778a56.888889 56.888889 0 1 1 0-113.777778h88.462222C901.575111 0 967.111111 63.203556 967.111111 142.222222V512a56.888889 56.888889 0 0 1-113.777778 0V142.222222c0-15.246222-13.653333-28.444444-31.630222-28.444444H733.297778zM455.111111 910.222222a56.888889 56.888889 0 0 1 0 113.777778H202.296889C122.424889 1024 56.888889 960.796444 56.888889 881.777778v-739.555556C56.888889 63.203556 122.424889 0 202.296889 0H290.702222a56.888889 56.888889 0 1 1 0 113.777778H202.296889C184.32 113.777778 170.666667 126.976 170.666667 142.222222v739.555556c0 15.246222 13.653333 28.444444 31.630222 28.444444H455.111111z"  p-id="1830"></path><path d="M568.888889 768m56.888889 0l284.444444 0q56.888889 0 56.888889 56.888889l0 0q0 56.888889-56.888889 56.888889l-284.444444 0q-56.888889 0-56.888889-56.888889l0 0q0-56.888889 56.888889-56.888889Z"  p-id="1831"></path><path d="M824.888889 625.777778m0 56.888889l0 284.444444q0 56.888889-56.888889 56.888889l0 0q-56.888889 0-56.888889-56.888889l0-284.444444q0-56.888889 56.888889-56.888889l0 0q56.888889 0 56.888889 56.888889Z"  p-id="1832"></path><path d="M398.222222 0m56.888889 0l113.777778 0q56.888889 0 56.888889 56.888889l0 0q0 56.888889-56.888889 56.888889l-113.777778 0q-56.888889 0-56.888889-56.888889l0 0q0-56.888889 56.888889-56.888889Z"  p-id="1833"></path><path d="M289.393778 284.444444m56.888889 0l113.777777 0q56.888889 0 56.888889 56.888889l0 0q0 56.888889-56.888889 56.888889l-113.777777 0q-56.888889 0-56.888889-56.888889l0 0q0-56.888889 56.888889-56.888889Z"  p-id="1834"></path><path d="M284.444444 512m56.888889 0l227.555556 0q56.888889 0 56.888889 56.888889l0 0q0 56.888889-56.888889 56.888889l-227.555556 0q-56.888889 0-56.888889-56.888889l0 0q0-56.888889 56.888889-56.888889Z"  p-id="1835"></path></svg>