<?xml version="1.0" standalone="no"?><!DOCTYPE svg PUBLIC "-//W3C//DTD SVG 1.1//EN" "http://www.w3.org/Graphics/SVG/1.1/DTD/svg11.dtd"><svg t="1571993411260" class="icon" viewBox="0 0 1024 1024" version="1.1" xmlns="http://www.w3.org/2000/svg" p-id="1290" xmlns:xlink="http://www.w3.org/1999/xlink" width="200" height="200"><defs><style type="text/css"></style></defs><path d="M733.240889 113.777778h88.462222c17.92 0 31.630222 13.198222 31.630222 28.444444v739.555556c0 15.246222-13.653333 28.444444-31.630222 28.444444H202.296889C184.32 910.222222 170.666667 897.024 170.666667 881.777778v-739.555556c0-15.246222 13.653333-28.444444 31.630222-28.444444H290.702222a56.888889 56.888889 0 1 0 0-113.777778H202.296889C122.424889 0 56.888889 63.203556 56.888889 142.222222v739.555556C56.888889 960.796444 122.424889 1024 202.296889 1024h619.406222C901.575111 1024 967.111111 960.796444 967.111111 881.777778v-739.555556C967.111111 63.203556 901.575111 0 821.703111 0H733.297778a56.888889 56.888889 0 1 0 0 113.777778z"  p-id="1291"></path><path d="M398.222222 0m56.888889 0l113.777778 0q56.888889 0 56.888889 56.888889l0 0q0 56.888889-56.888889 56.888889l-113.777778 0q-56.888889 0-56.888889-56.888889l0 0q0-56.888889 56.888889-56.888889Z"  p-id="1292"></path><path d="M289.393778 341.333333m56.888889 0l113.777777 0q56.888889 0 56.888889 56.888889l0 0q0 56.888889-56.888889 56.888889l-113.777777 0q-56.888889 0-56.888889-56.888889l0 0q0-56.888889 56.888889-56.888889Z"  p-id="1293"></path><path d="M284.444444 568.888889m56.888889 0l341.333334 0q56.888889 0 56.888889 56.888889l0 0q0 56.888889-56.888889 56.888889l-341.333334 0q-56.888889 0-56.888889-56.888889l0 0q0-56.888889 56.888889-56.888889Z"  p-id="1294"></path></svg>