<?xml version="1.0" standalone="no"?><!DOCTYPE svg PUBLIC "-//W3C//DTD SVG 1.1//EN" "http://www.w3.org/Graphics/SVG/1.1/DTD/svg11.dtd"><svg t="1571993436286" class="icon" viewBox="0 0 1024 1024" version="1.1" xmlns="http://www.w3.org/2000/svg" p-id="1567" xmlns:xlink="http://www.w3.org/1999/xlink" width="200" height="200"><defs><style type="text/css"></style></defs><path d="M806.912 474.282667L554.496 190.350222a56.888889 56.888889 0 0 0-84.992 0L217.088 474.282667A22.641778 22.641778 0 0 0 233.984 512c27.875556 0 50.460444 22.584889 50.460444 50.460444V853.333333a56.888889 56.888889 0 0 0 56.888889 56.888889 56.888889 56.888889 0 0 1 0 113.777778H284.444444a113.777778 113.777778 0 0 1-113.777777-113.777778v-284.444444-0.739556A113.777778 113.777778 0 0 1 98.531556 436.394667l328.419555-369.493334a113.777778 113.777778 0 0 1 170.097778 0l328.419555 369.493334A113.777778 113.777778 0 0 1 853.333333 625.038222V910.222222a113.777778 113.777778 0 0 1-113.777777 113.777778h-56.888889a56.888889 56.888889 0 1 1 0-113.777778 56.888889 56.888889 0 0 0 56.888889-56.888889V562.460444c0-27.875556 22.584889-50.460444 50.460444-50.460444a22.641778 22.641778 0 0 0 16.896-37.717333z"  p-id="1568"></path><path d="M398.222222 768h227.555556a56.888889 56.888889 0 0 0 0-113.777778H398.222222a56.888889 56.888889 0 0 0 0 113.777778z"  p-id="1569"></path></svg>