<?xml version="1.0" standalone="no"?><!DOCTYPE svg PUBLIC "-//W3C//DTD SVG 1.1//EN" "http://www.w3.org/Graphics/SVG/1.1/DTD/svg11.dtd"><svg t="1573613502968" class="icon" viewBox="0 0 1024 1024" version="1.1" xmlns="http://www.w3.org/2000/svg" p-id="1563" width="24" height="24" xmlns:xlink="http://www.w3.org/1999/xlink"><defs><style type="text/css"></style></defs><path d="M512 1024c282.752 0 512-229.248 512-512S794.752 0 512 0 0 229.248 0 512s229.248 512 512 512z m0-85.333333C276.352 938.666667 85.333333 747.648 85.333333 512S276.352 85.333333 512 85.333333s426.666667 191.018667 426.666667 426.666667-191.018667 426.666667-426.666667 426.666667z" fill="#333333" p-id="1564"></path><path d="M861.952 823.04A384 384 0 0 0 512 597.333333a384.042667 384.042667 0 0 0-352.981333 232.576l78.421333 33.706667a298.709333 298.709333 0 0 1 546.773333-5.333333l77.738667-35.2z" fill="#333333" p-id="1565"></path><path d="M512 682.666667a213.333333 213.333333 0 1 0 0-426.666667 213.333333 213.333333 0 0 0 0 426.666667z m0-85.333334a128 128 0 1 1 0-256 128 128 0 0 1 0 256z" fill="#333333" p-id="1566"></path></svg>
