<?xml version="1.0" standalone="no"?><!DOCTYPE svg PUBLIC "-//W3C//DTD SVG 1.1//EN" "http://www.w3.org/Graphics/SVG/1.1/DTD/svg11.dtd"><svg t="1572596598819" class="icon" viewBox="0 0 1024 1024" version="1.1" xmlns="http://www.w3.org/2000/svg" p-id="1952" xmlns:xlink="http://www.w3.org/1999/xlink" width="200" height="200"><defs><style type="text/css"></style></defs><path d="M478.593706 1023.955256h314.545745A79.293131 79.293131 0 0 1 790.267802 1023.999777H233.679885a77.912959 77.912959 0 0 1-77.912959-77.912958V545.34708H77.92075a77.912959 77.912959 0 0 1-55.095592-133.008551L441.150964 29.340685a100.173804 100.173804 0 0 1 141.66802 0l418.370328 382.997844a77.912959 77.912959 0 0 1-55.095593 133.008551H868.180761v55.652114h-0.044522v11.130422a55.652113 55.652113 0 0 1-111.304227 0v-44.52169l0.044522-2.047998v-53.604116a77.912959 77.912959 0 0 1 77.912959-77.912959h32.567616L511.984974 115.935373 156.612838 434.020593h32.567617a77.912959 77.912959 0 0 1 77.912959 77.912958V912.695551h75.531048l2.404172-0.044522h133.565072a55.652113 55.652113 0 0 1 0 111.304227z"  p-id="1953"></path><path d="M604.83496 847.515795l-2.11478 0.934956c-1.135303 0.445217-1.669563 1.179825-1.669564 1.780867v86.550167c0 4.897386 4.607995 9.305033 10.818771 9.305034a22.260845 22.260845 0 0 1 0 44.52169h-16.651112c-24.286582 0-38.689349-14.358245-38.689349-39.846913v-100.552238c0-18.832675 11.57564-35.617353 29.072664-42.852128l67.272274-34.059093 2.137041-0.957217c4.029213-1.558259 6.455645-4.964169 6.455646-8.503642V736.612264c0-25.956146 21.59302-46.547428 47.704991-46.547428H845.919915a22.260845 22.260845 0 0 1 0 44.521691h-136.748373c-1.981215 0-3.183301 1.135303-3.183301 2.003476v27.225014c0 21.815628-13.490072 41.293868-33.881006 49.619424l-67.272275 34.059093zM601.050616 946.086819h22.260846a22.260845 22.260845 0 0 1 0 44.52169h-22.260846v-44.52169z"  p-id="1954"></path><path d="M712.354843 845.913014h-22.260845a22.260845 22.260845 0 0 0 0 44.521691h22.260845c23.151279 0 44.521691-14.246941 44.521691-37.108829V823.652169a22.260845 22.260845 0 0 0-44.521691 0v22.260845zM723.485266 1023.999777a55.652113 55.652113 0 1 0 0-111.304226 55.652113 55.652113 0 0 0 0 111.304226zM901.572029 1023.999777a55.652113 55.652113 0 1 0 0-111.304226 55.652113 55.652113 0 0 0 0 111.304226z"  p-id="1955"></path><path d="M712.354843 990.608509h133.565072v-44.52169h-133.565072z"  p-id="1956"></path><path d="M801.398225 946.086819m22.260845 0l178.086763 0q22.260845 0 22.260845 22.260845l0 0q0 22.260845-22.260845 22.260845l-178.086763 0q-22.260845 0-22.260845-22.260845l0 0q0-22.260845 22.260845-22.260845Z"  p-id="1957"></path><path d="M870.918845 801.391324h83.567213c13.801724 0 24.998929-9.972859 24.99893-22.260846s-11.197205-22.260845-24.99893-22.260845h-83.567213c-13.801724 0-24.998929 9.972859-24.99893 22.260845s11.197205 22.260845 24.99893 22.260846zM870.228758 890.434705h129.469077c13.42329 0 24.308843-9.972859 24.308843-22.260845s-10.885553-22.260845-24.308843-22.260846h-129.469077c-13.42329 0-24.308843 9.972859-24.308843 22.260846s10.885553 22.260845 24.308843 22.260845z" p-id="1958"></path></svg>