<?xml version="1.0" standalone="no"?><!DOCTYPE svg PUBLIC "-//W3C//DTD SVG 1.1//EN" "http://www.w3.org/Graphics/SVG/1.1/DTD/svg11.dtd"><svg t="1572596706306" class="icon" viewBox="0 0 1024 1024" version="1.1" xmlns="http://www.w3.org/2000/svg" p-id="2206" xmlns:xlink="http://www.w3.org/1999/xlink" width="200" height="200"><defs><style type="text/css"></style></defs><path d="M733.406609 111.304348C703.332174 111.304348 678.956522 86.372174 678.956522 55.652174S703.332174 0 733.406609 0h84.680348A139.130435 139.130435 0 0 1 957.217391 139.130435V534.26087c0 30.72-24.375652 55.652174-54.450087 55.652173-30.052174 0-54.427826-24.932174-54.427826-55.652173V139.130435c0-14.914783-13.133913-27.826087-30.252521-27.826087h-84.680348zM456.347826 912.695652a55.652174 55.652174 0 1 1 0 111.304348H209.007304C130.893913 1024 66.782609 962.181565 66.782609 884.869565V139.130435C66.782609 61.818435 130.893913 0 209.007304 0h86.572522a55.652174 55.652174 0 1 1 0 111.304348h-86.594783C191.510261 111.304348 178.086957 124.215652 178.086957 139.130435v745.73913c0 14.914783 13.401043 27.826087 30.920347 27.826087H456.347826z"  p-id="2207"></path><path d="M402.654609 0m55.986087 0l111.927652 0q55.986087 0 55.986087 55.986087l0-0.022261q0 55.986087-55.986087 55.986087l-111.927652 0q-55.986087 0-55.986087-55.986087l0 0.022261q0-55.986087 55.986087-55.986087Z"  p-id="2208"></path><path d="M745.73913 1024a211.478261 211.478261 0 1 0 0-422.956522 211.478261 211.478261 0 0 0 0 422.956522z m0-44.521739a166.956522 166.956522 0 1 1 0-333.913044 166.956522 166.956522 0 0 1 0 333.913044z"  p-id="2209"></path><path d="M768 790.26087V690.086957a22.26087 22.26087 0 0 0-44.521739 0v122.434782a22.26087 22.26087 0 0 0 22.260869 22.26087h72.347827a22.26087 22.26087 0 0 0 0-44.521739H768zM301.011478 266.729739c-15.582609 34.281739-42.384696 65.446957-80.406261 93.495652l-9.972869-31.476869c27.826087-21.192348 48.306087-46.32487 61.395478-75.419826l28.983652 13.401043z m10.284522 71.991652a239.081739 239.081739 0 0 1-26.178783 45.189566v158.630956h-31.476869v-122.790956c-9.126957 8.525913-19.322435 17.252174-30.541913 26.178782l-9.661218-30.853565c31.165217-25.154783 54.53913-54.962087 70.12174-89.444174l27.737043 13.089391z m76.978087-83.21113h32.723478v30.541913h65.758609v29.606956h-65.758609v29.295305h78.536348v30.541913h-187.614609v-30.541913h76.354783V315.65913h-65.135304v-29.606956h65.135304v-30.541913z m-75.419826 148.346435h116.869565v-19.322435h33.035131v19.322435h32.411826V434.086957h-32.411826v75.731478c0 22.438957-11.731478 33.658435-35.216696 33.658435h-44.254609l-7.479652-31.165218c14.336 1.246609 27.737043 1.869913 40.20313 1.869913 9.126957 0 13.712696-4.251826 13.712696-12.777739V434.086957h-116.869565v-30.230261z m39.579826 36.463304c17.65287 16.829217 31.47687 31.788522 41.449739 44.877913l-25.243826 17.764174c-10.596174-14.135652-24.420174-29.718261-41.449739-46.747826l25.243826-15.894261z m414.809043 4.051478a349.273043 349.273043 0 0 1-25.86713 61.395479h59.525565v30.23026H535.373913V505.766957h171.097044c11.01913-20.146087 20.569043-43.631304 28.672-70.433392l32.100173 9.037913z m-170.785391-6.544695c8.726261 16.406261 16.517565 35.328 23.373913 56.720695l-29.295304 7.168c-6.455652-19.122087-14.336-37.175652-23.685565-54.227478l29.606956-9.661217z m71.991652-6.233044c6.856348 16.829217 13.200696 36.774957 19.010783 59.837218l-28.983652 7.168a387.584 387.584 0 0 0-19.945739-57.344l29.918608-9.661218z m-82.587826-25.86713c-17.452522 7.68-32.612174 13.712696-45.501217 18.075826l-15.894261-28.360348c53.203478-17.029565 97.658435-38.221913 133.38713-63.577044h19.94574c39.067826 27.425391 83.522783 48.818087 133.38713 64.200348l-15.894261 28.048696a524.466087 524.466087 0 0 1-45.189565-17.764174v21.815652h-164.240696v-22.438956z m150.839652-5.609739A415.788522 415.788522 0 0 1 667.826087 358.043826c-19.745391 15.36-42.896696 29.384348-69.498435 42.073044h138.373565z m-157.072695-91.62574a253.017043 253.017043 0 0 1-25.555479 40.826435l-28.360347-17.764174c19.122087-23.685565 32.612174-49.129739 40.514782-76.354782l31.47687 6.856348-5.921391 17.764173h75.731478v28.672h-36.463305c4.786087 10.796522 8.013913 18.921739 9.661218 24.30887l-29.295305 10.907826a393.171478 393.171478 0 0 0-12.466086-35.216696h-19.322435z m130.582261 0c-4.36313 8.525913-9.861565 17.764174-16.517566 27.737044l-27.425391-17.764174a192.556522 192.556522 0 0 0 30.853565-63.265391l30.853566 6.856348c-1.869913 6.233043-3.739826 12.154435-5.60974 17.764173h85.704348v28.672h-41.449739c4.563478 8.102957 9.037913 17.029565 13.401044 26.802087l-29.606957 11.531131a429.679304 429.679304 0 0 0-17.14087-38.333218h-23.06226z"  p-id="2210"></path></svg>